<svg xmlns="http://www.w3.org/2000/svg" width="387.999" height="107.888" viewBox="0 0 387.999 107.888">
  <g id="logo" transform="translate(0 3)">
    <g id="Group_547" data-name="Group 547">
      <g id="Group_160" data-name="Group 160" transform="translate(0.001 39.413)">
        <g id="Group_158" data-name="Group 158">
          <path id="Path_538" data-name="Path 538" d="M125.088,91.867V85.185a.693.693,0,0,1,.692-.694h3.657a4.525,4.525,0,0,0,3.474-1.351,5,5,0,0,0,1.263-3.562V40.165a.694.694,0,0,1,.694-.694h6.682a.694.694,0,0,1,.694.694V79.577a12.926,12.926,0,0,1-3.474,9.4,12.41,12.41,0,0,1-9.333,3.58H125.78A.694.694,0,0,1,125.088,91.867Z" transform="translate(-125.088 -38.349)"/>
          <path id="Path_539" data-name="Path 539" d="M153.171,93.712a12.419,12.419,0,0,1-9.316-3.578,12.889,12.889,0,0,1-3.492-9.4V51.818a12.873,12.873,0,0,1,3.492-9.421,13.986,13.986,0,0,1,18.649,0,12.919,12.919,0,0,1,3.474,9.421V80.73a12.936,12.936,0,0,1-3.474,9.4A12.411,12.411,0,0,1,153.171,93.712Zm0-8.07a4.528,4.528,0,0,0,3.474-1.351,5,5,0,0,0,1.263-3.56V51.818a5,5,0,0,0-1.263-3.562,5.142,5.142,0,0,0-6.948,0,5,5,0,0,0-1.263,3.562V80.73a5,5,0,0,0,1.263,3.56A4.525,4.525,0,0,0,153.171,85.642Z" transform="translate(-113.453 -38.834)"/>
          <path id="Path_540" data-name="Path 540" d="M160.68,91.411V40.165a.694.694,0,0,1,.692-.694h12.29a12.116,12.116,0,0,1,9.089,3.456,12.585,12.585,0,0,1,3.368,9.177v5.158a14.437,14.437,0,0,1-1.071,5.683,10.984,10.984,0,0,1-1.92,3.072.7.7,0,0,1-1.2-.44h0a.7.7,0,0,1,1.163-.56,11.6,11.6,0,0,1,2.378,3.263,13.629,13.629,0,0,1,1.351,6.175v5.019a12.606,12.606,0,0,1-3.368,9.14,12.041,12.041,0,0,1-9.087,3.492H161.372A.694.694,0,0,1,160.68,91.411Zm8.07-30.282a.693.693,0,0,0,.694.694h4.217a4.2,4.2,0,0,0,3.229-1.246,4.676,4.676,0,0,0,1.157-3.315V52.1a4.676,4.676,0,0,0-1.157-3.315,4.192,4.192,0,0,0-3.229-1.246h-4.217a.693.693,0,0,0-.694.694Zm0,22.211a.694.694,0,0,0,.694.694h4.92a4.158,4.158,0,0,0,3.227-1.263,4.69,4.69,0,0,0,1.157-3.3V74.454a4.69,4.69,0,0,0-1.157-3.3,4.158,4.158,0,0,0-3.227-1.263h-4.92a.693.693,0,0,0-.694.694Z" transform="translate(-97.978 -38.349)" fill="#065fac"/>
        </g>
        <path id="Path_541" data-name="Path 541" d="M285.594,61.807,262.06,42.254V40.987H258.8v1.349L235.39,61.807h-4.108L207.758,42.254V40.987H204.5v1.349l-23.411,19.47H171.64v4.152h31.134V89.826h6.812V65.959h47.491V89.826H263.9V65.959h27.618V61.807Zm-81.1,0h-4.475l4.475-8.537Zm0-11.571-6.069,11.571h-6.215L204.5,48.055Zm0-4.307L190.328,61.807h-7.04L204.5,44.17Zm3.261,15.878V53.069l4.577,8.738Zm6.166,0-6.166-11.773V47.94L220.15,61.807Zm8.1,0L207.758,45.823V44.086l21.3,17.721Zm36.779,0h-4.476l4.476-8.537Zm0-11.571-6.06,11.571h-6.226L258.8,48.055Zm0-4.307L244.642,61.807H237.6L258.8,44.17Zm3.259,15.878V53.069l4.582,8.738Zm6.166,0L262.06,50.033V47.94l12.392,13.866Zm8.109,0L262.06,45.823V44.086l21.315,17.721Z" transform="translate(-89.63 -37.194)" fill="#065fac"/>
        <g id="Group_159" data-name="Group 159" transform="translate(198.841)">
          <path id="Path_542" data-name="Path 542" d="M237.958,90.772V39.528a.693.693,0,0,1,.692-.694H250.94a12.109,12.109,0,0,1,9.089,3.456,12.581,12.581,0,0,1,3.368,9.175v5.158a14.445,14.445,0,0,1-1.071,5.685,10.975,10.975,0,0,1-1.92,3.071.7.7,0,0,1-1.2-.44h0a.7.7,0,0,1,1.163-.558,11.622,11.622,0,0,1,2.378,3.261,13.637,13.637,0,0,1,1.351,6.176v5.017a12.606,12.606,0,0,1-3.368,9.14,12.034,12.034,0,0,1-9.087,3.492H238.65A.693.693,0,0,1,237.958,90.772Zm8.07-30.28a.694.694,0,0,0,.694.694h4.217a4.193,4.193,0,0,0,3.229-1.247,4.673,4.673,0,0,0,1.157-3.315V51.465a4.679,4.679,0,0,0-1.157-3.315A4.2,4.2,0,0,0,250.94,46.9h-4.217a.694.694,0,0,0-.694.694Zm0,22.21a.693.693,0,0,0,.694.694h4.92a4.158,4.158,0,0,0,3.227-1.263,4.69,4.69,0,0,0,1.157-3.3V73.817a4.69,4.69,0,0,0-1.157-3.3,4.159,4.159,0,0,0-3.227-1.265h-4.92a.694.694,0,0,0-.694.694Z" transform="translate(-237.958 -38.834)" fill="#065fac"/>
          <path id="Path_543" data-name="Path 543" d="M257.5,84.84V47.808a.694.694,0,0,1,.694-.694h6.157a.694.694,0,0,1,.694.694v5.34L263.983,51.9a.711.711,0,0,1-.084-.795,8.34,8.34,0,0,1,3.143-3.256,9.758,9.758,0,0,1,4.947-1.228h1.025a.693.693,0,0,1,.694.694v6.155a.693.693,0,0,1-.694.694h-3.375a4.758,4.758,0,0,0-3.368,1.14,4.211,4.211,0,0,0-1.228,3.247V84.84a.694.694,0,0,1-.694.694H258.19A.694.694,0,0,1,257.5,84.84Z" transform="translate(-223.076 -32.902)"/>
          <path id="Path_544" data-name="Path 544" d="M269.267,48.142V40.723a.7.7,0,0,1,.694-.694h6.157a.7.7,0,0,1,.694.694v7.418a.694.694,0,0,1-.694.694h-6.157A.694.694,0,0,1,269.267,48.142Zm0,41.72V52.829a.694.694,0,0,1,.694-.694h6.157a.694.694,0,0,1,.694.694V89.862a.694.694,0,0,1-.694.694h-6.157A.694.694,0,0,1,269.267,89.862Z" transform="translate(-214.11 -37.924)"/>
          <path id="Path_545" data-name="Path 545" d="M287.99,92.343a10.485,10.485,0,0,1-4.808-1.14,8.545,8.545,0,0,1-3.648-3.807,15.815,15.815,0,0,1-1.4-7.3V64.378a15.84,15.84,0,0,1,1.4-7.281,8.537,8.537,0,0,1,3.648-3.825,10.485,10.485,0,0,1,4.808-1.14,9.544,9.544,0,0,1,5.035,1.246,8.516,8.516,0,0,1,2.993,3.092.7.7,0,0,1-.051.763l-1.029,1.392v-19.1a.693.693,0,0,1,.694-.694h6.155a.693.693,0,0,1,.694.694V90.772a.693.693,0,0,1-.694.694h-6.155a.693.693,0,0,1-.694-.694V85.887l1.022,1.355a.708.708,0,0,1,.056.77,8.5,8.5,0,0,1-2.991,3.086A9.544,9.544,0,0,1,287.99,92.343Zm2.317-7.544a4.473,4.473,0,0,0,3.419-1.281,4.772,4.772,0,0,0,1.212-3.421V64.378a4.783,4.783,0,0,0-1.212-3.4,5.154,5.154,0,0,0-6.841,0,4.782,4.782,0,0,0-1.21,3.4V80.1a4.782,4.782,0,0,0,1.21,3.4A4.442,4.442,0,0,0,290.307,84.8Z" transform="translate(-207.36 -38.834)"/>
          <path id="Path_546" data-name="Path 546" d="M308.39,98.559a11.592,11.592,0,0,1-8.842-3.527,12.949,12.949,0,0,1-3.333-9.281V84.418h6.849a.694.694,0,0,1,.694.694v1.166a4.81,4.81,0,0,0,1.228,3.421,4.429,4.429,0,0,0,3.4,1.316,4.484,4.484,0,0,0,3.421-1.316,4.775,4.775,0,0,0,1.245-3.421V75.225l1.05,1.353a.7.7,0,0,1,.06.775,8.462,8.462,0,0,1-3,3.083,9.571,9.571,0,0,1-5.017,1.246,10.563,10.563,0,0,1-4.825-1.142,8.5,8.5,0,0,1-3.666-3.805,15.8,15.8,0,0,1-1.4-7.3V58.628a15.817,15.817,0,0,1,1.4-7.281,8.5,8.5,0,0,1,3.666-3.825,10.584,10.584,0,0,1,4.825-1.14,9.57,9.57,0,0,1,5.017,1.246,8.463,8.463,0,0,1,3.005,3.086.7.7,0,0,1-.056.77l-1.055,1.39V47.99a.694.694,0,0,1,.694-.694h6.157a.693.693,0,0,1,.692.694V85.857a13.981,13.981,0,0,1-1.526,6.684,10.989,10.989,0,0,1-4.263,4.439A12.632,12.632,0,0,1,308.39,98.559Zm.07-24.422a4.438,4.438,0,0,0,3.386-1.279,4.78,4.78,0,0,0,1.21-3.423V58.628a4.789,4.789,0,0,0-1.21-3.4,4.4,4.4,0,0,0-3.386-1.3,4.51,4.51,0,0,0-3.439,1.3,4.746,4.746,0,0,0-1.228,3.4V69.435a4.743,4.743,0,0,0,1.228,3.4A4.5,4.5,0,0,0,308.46,74.137Z" transform="translate(-193.585 -33.084)"/>
          <path id="Path_547" data-name="Path 547" d="M326.649,86.593A12.509,12.509,0,0,1,320.23,85a11.064,11.064,0,0,1-4.263-4.473,14.09,14.09,0,0,1-1.527-6.7V59.155a14.122,14.122,0,0,1,1.527-6.686,11.033,11.033,0,0,1,4.263-4.491,12.509,12.509,0,0,1,6.419-1.6,11.617,11.617,0,0,1,8.861,3.509,12.931,12.931,0,0,1,3.315,9.263V67.55a.693.693,0,0,1-.694.692H321.59a.694.694,0,0,1-.694-.692v-5.63a.694.694,0,0,1,.694-.694h9a.694.694,0,0,0,.692-.694v-1.9a4.746,4.746,0,0,0-1.228-3.4,4.457,4.457,0,0,0-3.4-1.3,4.515,4.515,0,0,0-3.419,1.3,4.7,4.7,0,0,0-1.245,3.4V74.348a4.7,4.7,0,0,0,1.245,3.4,4.509,4.509,0,0,0,3.419,1.3,4.451,4.451,0,0,0,3.4-1.3,4.746,4.746,0,0,0,1.228-3.4V73.12h7.545v.7a12.949,12.949,0,0,1-3.315,9.247A11.59,11.59,0,0,1,326.649,86.593Z" transform="translate(-179.704 -33.084)"/>
          <path id="Path_548" data-name="Path 548" d="M343.869,86.593q-5.684,0-8.983-3.421a12.468,12.468,0,0,1-3.3-9.036v-.876h7.544v1.4a4.246,4.246,0,0,0,1.228,3.194,4.633,4.633,0,0,0,3.368,1.193,4.4,4.4,0,0,0,3.335-1.246,4.949,4.949,0,0,0,1.193-3.562,4.217,4.217,0,0,0-.474-2.14,3.393,3.393,0,0,0-1.457-1.3,11.265,11.265,0,0,0-2.632-.842,57.661,57.661,0,0,1-6.386-1.755,8.479,8.479,0,0,1-4.228-3q-1.49-2.051-1.49-6.157,0-6.1,3.28-9.386a11.745,11.745,0,0,1,8.685-3.28q5.684,0,8.965,3.421a12.509,12.509,0,0,1,3.28,9.036v.876h-7.543v-1.4a4.3,4.3,0,0,0-1.21-3.176,4.584,4.584,0,0,0-3.386-1.21,4.414,4.414,0,0,0-3.317,1.246,4.855,4.855,0,0,0-1.21,3.527,4.332,4.332,0,0,0,.456,2.14,3.237,3.237,0,0,0,1.473,1.3,12.069,12.069,0,0,0,2.632.842,57.042,57.042,0,0,1,6.265,1.7,8.746,8.746,0,0,1,4.281,3q1.559,2.069,1.561,6.245,0,6.073-3.247,9.369A11.63,11.63,0,0,1,343.869,86.593Z" transform="translate(-166.642 -33.084)"/>
        </g>
      </g>
      <text id="天職の架け橋" transform="translate(0 20)" fill="#065fac" font-size="23" font-family="YuGothic-Bold, Yu Gothic" font-weight="700"><tspan x="0" y="0">天職の架け橋</tspan></text>
      <text id="ジョブリッジーズ" transform="translate(152.24 16.859)" font-size="15" font-family="YuGothic-Bold, Yu Gothic" font-weight="700"><tspan x="0" y="0">ジョブリッジーズ</tspan></text>
    </g>
  </g>
</svg>
