<svg id="logo" xmlns="http://www.w3.org/2000/svg" xmlns:xlink="http://www.w3.org/1999/xlink" width="225.965" height="90.317" viewBox="0 0 225.965 90.317">
  <defs>
    <clipPath id="clip-path">
      <rect id="Rectangle_888" data-name="Rectangle 888" width="225.965" height="90.317" fill="none"/>
    </clipPath>
  </defs>
  <g id="Group_23228" data-name="Group 23228" clip-path="url(#clip-path)">
    <path id="Path_42228" data-name="Path 42228" d="M29.209,9.236q.677-.1,1.6-.263t1.887-.339l.1,1.266q-.865.188-1.73.37t-1.6.332ZM29.46.923h4.326V2.252H29.46Zm.5.715h1.216V9.512H29.961Zm.589,1.969h2.194V4.822H30.551Zm0,2.558h2.194V7.393H30.551Zm1.442-4.526h1.266V12.233H31.993Zm1.492,2.746h7.6V5.55h-7.6Zm.251-2.771h3.849V2.7H33.736ZM33.961,6.1H35.1V11.38H33.961ZM34,2.891l.965-.238a5.96,5.96,0,0,1,.232.822,4.736,4.736,0,0,1,.107.783l-1.016.251a5.816,5.816,0,0,0-.094-.783A7.387,7.387,0,0,0,34,2.891m.527,4.99h2.257V8.86H34.525Zm.313-1.78h2.6v4.551h-2.6V9.625h1.429V7.142H34.839ZM35.027.484h1.279V2.352H35.027Zm1.2,2.169,1.141.213q-.15.439-.288.859t-.251.733l-.94-.213q.1-.339.195-.79t.144-.8m3.523,3.36,1.2.263A11.958,11.958,0,0,1,39.39,9.768a9.085,9.085,0,0,1-2.432,2.477q-.075-.113-.232-.3t-.327-.376a4.058,4.058,0,0,0-.294-.3A7.133,7.133,0,0,0,38.381,9.11a9.833,9.833,0,0,0,1.373-3.1M37.773.459H39.1q-.012,1.593.019,3.072t.107,2.739q.076,1.26.182,2.2a11.19,11.19,0,0,0,.244,1.474q.138.533.3.533.125,0,.194-.414A10.871,10.871,0,0,0,40.255,8.9a3.256,3.256,0,0,0,.3.313,4.062,4.062,0,0,0,.376.313q.188.138.3.213a6.915,6.915,0,0,1-.395,1.555,1.862,1.862,0,0,1-.483.734.783.783,0,0,1-.464.194,1.086,1.086,0,0,1-.89-.564,4.849,4.849,0,0,1-.6-1.58A19.311,19.311,0,0,1,38.043,7.6q-.132-1.448-.189-3.253T37.773.459M38.926,1.5,39.9.986A7.5,7.5,0,0,1,40.631,2a6.96,6.96,0,0,1,.514,1l-1.053.577a5.576,5.576,0,0,0-.476-1.016,9.995,9.995,0,0,0-.69-1.053" transform="translate(-13.286 -0.209)" fill="#231815"/>
    <path id="Path_42229" data-name="Path 42229" d="M53.083,8.785q.489-.176,1.135-.439t1.373-.57q.726-.307,1.441-.621l.326,1.291q-.94.489-1.918.978t-1.793.89Zm.288-5.567H57.2V4.634H53.371ZM54.638.735h1.4v7.8h-1.4ZM58.876,6.1l1.291.326a7.5,7.5,0,0,1-1.26,1.987,8.472,8.472,0,0,1-1.687,1.5c-.075-.083-.174-.186-.294-.307s-.246-.236-.377-.345A4.141,4.141,0,0,0,56.206,9a6.256,6.256,0,0,0,1.586-1.235A5.562,5.562,0,0,0,58.876,6.1m1.116,1.655.978.577a7.6,7.6,0,0,1-.821,1.317,10.766,10.766,0,0,1-1.11,1.241,7.51,7.51,0,0,1-1.2.953,4.129,4.129,0,0,0-.445-.476,3.462,3.462,0,0,0-.533-.414,6.432,6.432,0,0,0,1.223-.828,8.393,8.393,0,0,0,1.109-1.134,6.608,6.608,0,0,0,.8-1.235M57.033,5.638h7.949V6.9H57.033ZM58.137.9H64.1V5.161H58.137Zm.263,6.6h5.153V8.684H58.4Zm3.486.251L62.9,8.3a8.574,8.574,0,0,1-.639,1.536,10.566,10.566,0,0,1-.928,1.46,6,6,0,0,1-1.078,1.116,3.771,3.771,0,0,0-.489-.451,3.723,3.723,0,0,0-.589-.389,5.09,5.09,0,0,0,1.141-1,7.989,7.989,0,0,0,.934-1.354,7.89,7.89,0,0,0,.633-1.467M59.478,2.528h3.235V1.939H59.478Zm0,1.592h3.235v-.6H59.478Zm3.849,3.373h1.392a4.26,4.26,0,0,1-.038.527q-.074,1.217-.182,2a8.975,8.975,0,0,1-.231,1.217,1.562,1.562,0,0,1-.3.62,1.013,1.013,0,0,1-.382.3,1.9,1.9,0,0,1-.458.125q-.213.025-.545.038a7.083,7.083,0,0,1-.721-.013,3.156,3.156,0,0,0-.1-.608,1.838,1.838,0,0,0-.238-.57q.3.025.539.032t.364.006a.714.714,0,0,0,.207-.025.346.346,0,0,0,.156-.113,1.24,1.24,0,0,0,.207-.482A8.328,8.328,0,0,0,63.17,9.5q.082-.689.156-1.793Z" transform="translate(-24.145 -0.334)" fill="#231815"/>
    <path id="Path_42230" data-name="Path 42230" d="M83.874,4.3q-.115.87-.3,1.855a18.165,18.165,0,0,1-.492,1.992,10.232,10.232,0,0,1-.778,1.992,4.349,4.349,0,0,1-.979,1.288,1.756,1.756,0,0,1-1.162.452A1.814,1.814,0,0,1,79,11.446a2.93,2.93,0,0,1-.847-1.185,4.42,4.42,0,0,1-.315-1.717,4.484,4.484,0,0,1,.4-1.877A4.988,4.988,0,0,1,79.358,5.1a5.283,5.283,0,0,1,1.671-1.07A5.428,5.428,0,0,1,83.1,3.644a5.1,5.1,0,0,1,1.918.343,4.326,4.326,0,0,1,1.459.95,4.124,4.124,0,0,1,.927,1.42,4.742,4.742,0,0,1,.321,1.752,4.61,4.61,0,0,1-.492,2.152,4.072,4.072,0,0,1-1.459,1.568,6.272,6.272,0,0,1-2.41.847L82.5,11.314q.333-.034.584-.08t.481-.1a4.387,4.387,0,0,0,1.024-.395,3.213,3.213,0,0,0,.83-.642,2.814,2.814,0,0,0,.556-.9,3.1,3.1,0,0,0,.2-1.133,3.561,3.561,0,0,0-.206-1.236,2.778,2.778,0,0,0-.607-.979,2.671,2.671,0,0,0-.973-.641,3.608,3.608,0,0,0-1.317-.223,3.707,3.707,0,0,0-2.793,1.168,3.685,3.685,0,0,0-.727,1.11,2.967,2.967,0,0,0-.246,1.133,2.861,2.861,0,0,0,.137.956,1.443,1.443,0,0,0,.337.572.619.619,0,0,0,.43.189.667.667,0,0,0,.475-.246,2.735,2.735,0,0,0,.464-.75,10.146,10.146,0,0,0,.458-1.271,15.64,15.64,0,0,0,.446-1.763,17.944,17.944,0,0,0,.263-1.832Z" transform="translate(-35.406 -1.657)" fill="#231815"/>
    <path id="Path_42231" data-name="Path 42231" d="M102.831,6.671a1.052,1.052,0,0,1-.909-.445,2.131,2.131,0,0,1-.32-1.26,2.986,2.986,0,0,1,.476-1.686,3.681,3.681,0,0,1,1.417-1.21l.426.815a2.628,2.628,0,0,0-.921.752,1.755,1.755,0,0,0-.307,1.053l.088,1.154-.665-.89a1.514,1.514,0,0,1,.339-.219.875.875,0,0,1,.376-.082,1.018,1.018,0,0,1,.7.257.9.9,0,0,1,.288.708,1.062,1.062,0,0,1-.275.765.945.945,0,0,1-.715.288m3.135,0a1.052,1.052,0,0,1-.909-.445,2.131,2.131,0,0,1-.32-1.26,2.986,2.986,0,0,1,.476-1.686,3.681,3.681,0,0,1,1.417-1.21l.426.815a2.564,2.564,0,0,0-.915.752,1.782,1.782,0,0,0-.3,1.053l.075,1.154-.665-.89a1.514,1.514,0,0,1,.339-.219.875.875,0,0,1,.376-.082,1.018,1.018,0,0,1,.7.257.9.9,0,0,1,.288.708,1.062,1.062,0,0,1-.275.765.945.945,0,0,1-.715.288" transform="translate(-46.214 -0.941)" fill="#231815"/>
    <path id="Path_42232" data-name="Path 42232" d="M119.282,6.968q-.226.413-.527.9t-.646.977q-.344.49-.671.909c-.217.28-.409.512-.577.7L115.5,9.526a7.593,7.593,0,0,0,.645-.684c.221-.263.439-.541.651-.834s.409-.585.589-.878.337-.572.47-.84Zm-3.2-3.4.595.057c.214.021.416.032.609.032h7.736q.263,0,.627-.025c.243-.017.448-.038.614-.063V5.213q-.289-.025-.627-.032c-.226,0-.426-.006-.6-.006h-7.748q-.276,0-.609.013t-.595.038Zm6.143-2.006c-.009.058-.023.155-.044.288s-.038.276-.051.427-.019.276-.019.376v8.351a1.161,1.161,0,0,1-.319.859,1.361,1.361,0,0,1-1,.32c-.226,0-.456,0-.69-.013s-.464-.021-.69-.038-.443-.038-.652-.062l-.162-1.555q.413.074.789.113t.614.038a.448.448,0,0,0,.339-.107.536.536,0,0,0,.113-.345q0-.113.007-.49t.006-.89V2.654a5.427,5.427,0,0,0-.038-.589c-.025-.226-.046-.394-.063-.5Zm2.432,4.689q.238.3.533.715t.6.884q.3.47.564.915t.452.784l-1.468.8q-.2-.4-.458-.865t-.533-.928q-.276-.464-.552-.872t-.5-.7Z" transform="translate(-52.534 -0.711)" fill="#231815"/>
    <path id="Path_42233" data-name="Path 42233" d="M140.887,10.857a13.279,13.279,0,0,0,1.843-.389,12.863,12.863,0,0,0,1.6-.577,14.708,14.708,0,0,0,1.354-.677,12.107,12.107,0,0,0,1.956-1.454,12.444,12.444,0,0,0,1.555-1.7,9.617,9.617,0,0,0,1.053-1.724l.978,1.768a11.6,11.6,0,0,1-1.173,1.68,13.492,13.492,0,0,1-1.573,1.6,13.154,13.154,0,0,1-1.893,1.36,14.277,14.277,0,0,1-1.379.734,14.132,14.132,0,0,1-1.561.614,11.73,11.73,0,0,1-1.711.42Zm1.567-8.351q.325.226.765.552t.909.709q.471.382.884.746a8.748,8.748,0,0,1,.677.652l-1.279,1.3q-.238-.263-.627-.627t-.84-.752q-.451-.388-.89-.74t-.777-.589Z" transform="translate(-64.083 -1.14)" fill="#231815"/>
    <path id="Path_42234" data-name="Path 42234" d="M165.577,10.508V3.3q0-.326-.032-.752a6.644,6.644,0,0,0-.093-.752h1.955q-.037.326-.075.721t-.038.784v7.21c0,.117,0,.282.013.5s.025.432.05.658.041.426.05.6h-1.955c.033-.251.063-.544.088-.878s.037-.627.037-.878m1.342-5.467q.627.163,1.4.42t1.567.545q.79.289,1.486.57t1.16.521l-.715,1.73q-.526-.276-1.166-.558t-1.3-.545q-.658-.263-1.292-.489t-1.147-.4Z" transform="translate(-75.256 -0.816)" fill="#231815"/>
    <path id="Path_42235" data-name="Path 42235" d="M182.759,6.405l-.426-.8a2.742,2.742,0,0,0,.921-.765,1.752,1.752,0,0,0,.307-1.053l-.1-1.141.677.89a1.417,1.417,0,0,1-.333.207.921.921,0,0,1-.382.082,1.033,1.033,0,0,1-.7-.263.886.886,0,0,1-.3-.7,1.022,1.022,0,0,1,.282-.765.989.989,0,0,1,.721-.276,1.039,1.039,0,0,1,.909.439A2.148,2.148,0,0,1,184.64,3.5a3.078,3.078,0,0,1-.47,1.7,3.5,3.5,0,0,1-1.41,1.21m3.135,0-.439-.8a2.718,2.718,0,0,0,.934-.765,1.752,1.752,0,0,0,.307-1.053l-.1-1.141.677.89a1.417,1.417,0,0,1-.333.207.921.921,0,0,1-.382.082,1.033,1.033,0,0,1-.7-.263.886.886,0,0,1-.3-.7,1.022,1.022,0,0,1,.282-.765.989.989,0,0,1,.721-.276,1.039,1.039,0,0,1,.909.439,2.148,2.148,0,0,1,.307,1.241,3.078,3.078,0,0,1-.47,1.7,3.5,3.5,0,0,1-1.41,1.21" transform="translate(-82.935 -0.826)" fill="#231815"/>
    <path id="Path_42236" data-name="Path 42236" d="M196.61,4.337q.309.023.612.017t.613-.017q.286-.011.687-.04l.853-.063q.451-.034.91-.074t.847-.063q.389-.023.641-.023a2.668,2.668,0,0,1,1.076.2,1.524,1.524,0,0,1,.727.681,2.674,2.674,0,0,1,.269,1.305q0,.675-.057,1.465a12.452,12.452,0,0,1-.2,1.511,4.863,4.863,0,0,1-.4,1.225,1.616,1.616,0,0,1-.75.824,2.575,2.575,0,0,1-1.128.229,5.19,5.19,0,0,1-.7-.051q-.378-.052-.675-.109l-.24-1.511q.218.057.487.114t.515.092a3.007,3.007,0,0,0,.4.034,1.114,1.114,0,0,0,.5-.108.815.815,0,0,0,.355-.384,3.589,3.589,0,0,0,.263-.859,10.693,10.693,0,0,0,.155-1.139q.051-.612.051-1.173a1.342,1.342,0,0,0-.132-.675.643.643,0,0,0-.377-.292,2.1,2.1,0,0,0-.6-.075q-.263,0-.709.04t-.956.092q-.509.052-.945.108t-.675.08q-.252.046-.635.1t-.647.1Zm4.648-2.347c-.031.145-.065.3-.1.475s-.073.33-.1.475q-.046.252-.114.566c-.046.21-.089.42-.131.63s-.086.414-.132.612q-.114.492-.286,1.145t-.4,1.4q-.23.75-.515,1.505t-.607,1.471a9.879,9.879,0,0,1-.687,1.288l-1.488-.6a8.984,8.984,0,0,0,.75-1.208q.349-.671.635-1.374t.509-1.4q.224-.693.389-1.288t.258-1.019q.16-.778.252-1.5a8.443,8.443,0,0,0,.069-1.362ZM205.2,3.146a8.068,8.068,0,0,1,.566.922q.292.544.578,1.15t.515,1.168q.228.561.354.973l-1.454.664a9.323,9.323,0,0,0-.3-1.065q-.2-.584-.464-1.185t-.555-1.139a5.353,5.353,0,0,0-.6-.9Zm-.207-1.591q.149.206.315.492t.326.572q.159.286.275.5l-.927.4c-.076-.16-.164-.336-.263-.527s-.2-.382-.309-.572a4.129,4.129,0,0,0-.321-.492Zm1.363-.515c.1.145.206.313.321.5s.227.382.337.572.2.351.258.481l-.9.389c-.122-.237-.268-.505-.434-.807a6.893,6.893,0,0,0-.493-.772Z" transform="translate(-89.429 -0.473)" fill="#231815"/>
    <path id="Path_42237" data-name="Path 42237" d="M221.511,8.081h1.6a8.835,8.835,0,0,1-.269,1.561A3.459,3.459,0,0,1,221,11.9a8.4,8.4,0,0,1-2.056.709,2.054,2.054,0,0,0-.207-.458c-.1-.163-.2-.325-.314-.489a2.366,2.366,0,0,0-.333-.395,7.707,7.707,0,0,0,1.743-.5,2.905,2.905,0,0,0,1-.683,2.208,2.208,0,0,0,.483-.884,6.664,6.664,0,0,0,.2-1.122m-1.592-6.909h8.237v7.4h-8.237Zm1.454,2.081h5.254V2.476h-5.254Zm0,1.994h5.254V4.47h-5.254Zm0,2.019h5.254v-.79h-5.254Zm3.2.3h1.543v3q0,.3.094.382a.769.769,0,0,0,.445.082h1.317a.443.443,0,0,0,.326-.113.873.873,0,0,0,.163-.476q.049-.364.076-1.1a2.651,2.651,0,0,0,.407.251,3.465,3.465,0,0,0,.514.213l.458.15a6.436,6.436,0,0,1-.263,1.536,1.341,1.341,0,0,1-.551.759,1.967,1.967,0,0,1-.992.213h-1.667a2.992,2.992,0,0,1-1.147-.176,1,1,0,0,1-.564-.589,3.211,3.211,0,0,1-.158-1.116Z" transform="translate(-99.198 -0.533)" fill="#231815"/>
    <path id="Path_42238" data-name="Path 42238" d="M250.95,5.835q-.231.16-.413.3c-.122.1-.232.189-.331.281q-.206.16-.476.412c-.179.168-.364.337-.554.509s-.361.33-.51.475-.256.256-.325.332a.686.686,0,0,1,.207.011.821.821,0,0,1,.228.069.881.881,0,0,1,.412.269,1.64,1.64,0,0,1,.275.51,3.252,3.252,0,0,1,.108.337c.034.126.07.25.109.372s.076.233.115.332a.729.729,0,0,0,.274.4.9.9,0,0,0,.526.137q.447,0,.848-.029t.755-.074c.237-.031.45-.065.642-.1l-.092,1.5c-.154.031-.369.059-.648.086s-.564.048-.858.063-.541.023-.739.023a3.135,3.135,0,0,1-1.276-.212,1.323,1.323,0,0,1-.68-.772q-.047-.172-.115-.389c-.046-.145-.087-.288-.12-.43s-.067-.257-.1-.349a.771.771,0,0,0-.264-.43.594.594,0,0,0-.343-.12.66.66,0,0,0-.366.12,2.248,2.248,0,0,0-.39.338q-.114.114-.28.3c-.111.122-.236.259-.378.412s-.286.317-.436.492l-.463.55c-.161.19-.321.389-.481.6l-1.35-.95q.149-.137.355-.315c.137-.118.282-.25.436-.395q.148-.149.423-.429t.636-.636q.361-.355.756-.762t.8-.807q.4-.4.75-.762l.613-.635-.539.028-.617.034c-.214.011-.424.027-.631.046l-.572.052q-.263.023-.469.046-.3.023-.55.063t-.436.063l-.137-1.58.492.028q.3.017.607.006c.107,0,.285,0,.533-.011s.536-.019.865-.034.662-.033,1-.052.66-.041.961-.069.544-.051.727-.074q.16-.023.36-.057a1.766,1.766,0,0,0,.293-.069Zm-5.073-3.64q.481.092,1.1.177t1.275.166q.66.08,1.26.131c.4.034.746.063,1.036.086L250.365,4.1q-.446-.034-1.047-.1t-1.248-.143l-1.275-.16q-.631-.08-1.134-.172Z" transform="translate(-110.74 -0.998)" fill="#231815"/>
    <path id="Path_42239" data-name="Path 42239" d="M266.54,3.081c.161.023.332.038.515.046s.359.011.527.011c.122,0,.3,0,.549-.006s.521-.009.829-.017l.922-.023c.3-.008.581-.017.829-.029l.578-.028c.236-.023.424-.044.561-.063a1.8,1.8,0,0,0,.309-.063l.744,1.019q-.195.126-.4.252a4.485,4.485,0,0,0-.4.275q-.23.16-.549.418t-.681.544q-.361.286-.7.561c-.226.183-.429.347-.612.492a4.373,4.373,0,0,1,.55-.1,4.83,4.83,0,0,1,.537-.029,3.925,3.925,0,0,1,1.746.378,3.136,3.136,0,0,1,1.224,1.025,2.523,2.523,0,0,1,.452,1.482,3.026,3.026,0,0,1-.457,1.637,3.166,3.166,0,0,1-1.38,1.168,5.4,5.4,0,0,1-2.306.435,4.182,4.182,0,0,1-1.426-.229,2.34,2.34,0,0,1-1-.653,1.474,1.474,0,0,1-.366-1,1.612,1.612,0,0,1,.257-.876,1.913,1.913,0,0,1,.722-.658,2.2,2.2,0,0,1,1.07-.252,2.623,2.623,0,0,1,1.334.315,2.178,2.178,0,0,1,.835.841,2.433,2.433,0,0,1,.3,1.156l-1.339.183A1.637,1.637,0,0,0,270,10.287.979.979,0,0,0,269.2,9.9a.769.769,0,0,0-.515.166.493.493,0,0,0-.2.384.585.585,0,0,0,.321.515,1.6,1.6,0,0,0,.836.195,4.856,4.856,0,0,0,1.626-.234,2.028,2.028,0,0,0,.979-.676,1.713,1.713,0,0,0,.325-1.047,1.4,1.4,0,0,0-.314-.9,2.064,2.064,0,0,0-.853-.607,3.216,3.216,0,0,0-1.214-.218,4.184,4.184,0,0,0-1.214.166,4.33,4.33,0,0,0-1.036.469,6.4,6.4,0,0,0-.95.733,12.5,12.5,0,0,0-.922.956l-1.041-1.076q.307-.252.7-.567c.258-.209.525-.429.8-.658l.766-.647q.361-.3.613-.509c.16-.13.347-.282.561-.458l.663-.544q.343-.28.652-.538t.516-.441c-.115,0-.263,0-.447.011l-.6.023-.653.023q-.326.011-.607.028l-.463.029c-.154.008-.313.019-.481.034s-.321.034-.458.057Z" transform="translate(-120.549 -1.323)" fill="#231815"/>
    <path id="Path_42240" data-name="Path 42240" d="M296.616,2.538a5.237,5.237,0,0,0-.275.558q-.15.345-.251.571-.226.627-.565,1.36T294.76,6.5a13.343,13.343,0,0,1-.94,1.417,17.5,17.5,0,0,1-1.311,1.536,15.673,15.673,0,0,1-1.674,1.511,16.392,16.392,0,0,1-2.156,1.417l-1.4-1.266a13.975,13.975,0,0,0,2.958-1.874,14.257,14.257,0,0,0,2.219-2.351,9.978,9.978,0,0,0,1.222-1.937,17.578,17.578,0,0,0,.772-1.912,4.579,4.579,0,0,0,.181-.583c.055-.221.095-.412.119-.57Zm-6.9,1.216q.476.289,1.01.646t1.078.733q.545.376,1.04.74t.9.665q1,.79,1.956,1.643t1.718,1.668l-1.291,1.429q-.827-.953-1.68-1.762T292.6,7.879q-.339-.289-.778-.627t-.946-.715q-.508-.376-1.071-.759t-1.154-.746Z" transform="translate(-130.668 -0.858)" fill="#231815"/>
    <path id="Path_42241" data-name="Path 42241" d="M309.677,4.639c.183.025.383.044.6.056s.415.019.608.019h8.213c.134,0,.316-.007.546-.019s.428-.032.6-.056V6.268c-.15-.016-.335-.027-.552-.032s-.414-.006-.59-.006H310.88c-.184,0-.387,0-.608.013s-.42.021-.6.038Zm1.454-3.21q.3.05.665.075t.677.025h4.1q.325,0,.677-.025t.677-.075V3.046q-.326-.025-.677-.032t-.677-.006h-4.1c-.218,0-.447,0-.69.006s-.46.015-.652.032ZM316.1,5.516a10.27,10.27,0,0,1-.213,2.188,7.172,7.172,0,0,1-.614,1.749,4.452,4.452,0,0,1-.6.878,6.723,6.723,0,0,1-.871.853,5.414,5.414,0,0,1-1.053.677L311.282,10.8a4.677,4.677,0,0,0,1.278-.746A4.886,4.886,0,0,0,313.551,9a4.213,4.213,0,0,0,.64-1.593,10.378,10.378,0,0,0,.163-1.893ZM318.68.564q.163.226.345.539t.351.627q.169.313.295.552l-1,.439q-.2-.388-.471-.885a9.534,9.534,0,0,0-.52-.858ZM320.159,0c.108.16.226.345.352.558l.369.627c.122.2.221.378.295.521l-1,.439c-.125-.268-.282-.564-.469-.891s-.366-.606-.533-.84Z" transform="translate(-140.858 0)" fill="#231815"/>
    <path id="Path_42242" data-name="Path 42242" d="M332.562,9.7a12.744,12.744,0,0,0,1.661-.483,16.911,16.911,0,0,0,1.586-.665q.739-.357,1.241-.645a12.4,12.4,0,0,0,1.21-.847q.6-.47,1.1-.946a7.652,7.652,0,0,0,.816-.89l1.241,1.216a8.6,8.6,0,0,1-.959.909q-.6.5-1.285.991t-1.38.9q-.427.263-.977.533t-1.16.527q-.608.258-1.217.483t-1.134.4Zm4.338-.815,1.706-.326V13.02c0,.142,0,.3.007.489s.014.353.031.508.033.274.05.358h-1.856a2.188,2.188,0,0,0,.032-.358q.007-.232.02-.508c.007-.184.011-.347.011-.489Z" transform="translate(-151.267 -2.375)" fill="#231815"/>
    <path id="Path_42243" data-name="Path 42243" d="M363.037,3.631c-.067.083-.15.19-.25.319s-.18.24-.239.333a12.427,12.427,0,0,1-.764,1.122,15.929,15.929,0,0,1-1.053,1.254,8.008,8.008,0,0,1-1.191,1.06l-1.3-1.041a6.041,6.041,0,0,0,.74-.527,6.931,6.931,0,0,0,.67-.633q.307-.332.539-.633a3.927,3.927,0,0,0,.358-.539H354.01q-.389,0-.74.025c-.234.017-.5.038-.79.063V2.691q.364.05.751.088c.26.025.519.038.778.038h6.758c.117,0,.258,0,.426-.013s.332-.021.5-.038a1.841,1.841,0,0,0,.358-.063Zm-5.115,1.693q0,.928-.038,1.793a10.022,10.022,0,0,1-.207,1.661,6,6,0,0,1-.539,1.511,5.379,5.379,0,0,1-1.023,1.354,7.15,7.15,0,0,1-1.667,1.179l-1.468-1.191a4.954,4.954,0,0,0,.64-.27,4.568,4.568,0,0,0,.677-.42,4.476,4.476,0,0,0,.972-.878,3.608,3.608,0,0,0,.571-1.01,5.182,5.182,0,0,0,.275-1.191,12.226,12.226,0,0,0,.076-1.41q0-.289-.013-.558a3.72,3.72,0,0,0-.076-.57Z" transform="translate(-160.327 -1.224)" fill="#231815"/>
    <rect id="Rectangle_886" data-name="Rectangle 886" width="186.464" height="1.679" transform="translate(16.085 15.288)" fill="#231815"/>
    <path id="Path_42244" data-name="Path 42244" d="M17.429,63.852c2.905.236,4.318,1.649,4.4,4.318.157,2.9,1.649,4.4,4.318,4.4h4.4c2.67,0,4.083-1.492,4.318-4.4a23.7,23.7,0,0,0-2.12-8.715q-4.358-8.714-15.309-8.714c-7.3,0-12.326,2.9-15.231,8.714A19.828,19.828,0,0,0,0,68.17V95.49a19.827,19.827,0,0,0,2.2,8.715c2.905,5.81,7.93,8.714,15.231,8.714s12.4-2.9,15.309-8.714a23.7,23.7,0,0,0,2.12-8.715c-.236-2.9-1.649-4.4-4.318-4.4h-4.4c-2.67,0-4.161,1.492-4.318,4.4-.079,2.67-1.492,4.083-4.4,4.318-2.905-.235-4.318-1.649-4.318-4.318V68.17c0-2.67,1.413-4.083,4.318-4.318" transform="translate(0 -23.08)" fill="#231815"/>
    <path id="Path_42245" data-name="Path 42245" d="M385.419,68.17a18.076,18.076,0,0,0-1.06-5.984,19.2,19.2,0,0,0-1.059-2.73q-4.358-8.714-15.309-8.715t-15.309,8.715a19.166,19.166,0,0,0-1.059,2.731,18.059,18.059,0,0,0-1.06,5.984V95.491a18.059,18.059,0,0,0,1.06,5.984,19.166,19.166,0,0,0,1.059,2.731q4.358,8.715,15.309,8.715t15.309-8.715a19.2,19.2,0,0,0,1.059-2.73,18.076,18.076,0,0,0,1.06-5.984Z" transform="translate(-159.454 -23.08)" fill="#231815"/>
    <path id="Path_42246" data-name="Path 42246" d="M280.483,50.741c-7.3,0-12.326,2.905-15.23,8.715a19.821,19.821,0,0,0-2.2,8.714v39.882c0,2.905,1.728,4.318,4.4,4.318h4.318c2.669,0,4.318-1.413,4.318-4.318l.078-9.421a20.359,20.359,0,0,0,4.318.628q10.952,0,15.309-8.714a19.819,19.819,0,0,0,2.12-8.715V68.17a19.819,19.819,0,0,0-2.12-8.714q-4.358-8.714-15.309-8.715m4.4,31.09c0,2.748-1.492,4.161-4.4,4.4-2.905-.236-4.318-1.649-4.318-4.4V68.17c0-2.669,1.413-4.082,4.318-4.318,2.905.236,4.4,1.649,4.4,4.318Z" transform="translate(-119.651 -23.08)" fill="#231815"/>
    <path id="Path_42247" data-name="Path 42247" d="M138.389,50.918H115.265a30.628,30.628,0,0,0-23.723,50c.865,1.522,2.83,6.538-6.292,9.954a.8.8,0,0,0,.059,1.5c3.511,1.076,10.175,2.318,15.56-1.355h0s1.623-1.056,5.982-.015a30.646,30.646,0,0,0,8.413,1.17h23.124a30.628,30.628,0,1,0,0-61.256" transform="translate(-38.497 -23.16)" fill="#231815"/>
    <path id="Path_42248" data-name="Path 42248" d="M127.553,110.038a17.731,17.731,0,0,1,0-35.462h21.46a17.731,17.731,0,0,1,0,35.462Z" transform="translate(-49.953 -33.921)" fill="#ffe600"/>
    <path id="Path_42249" data-name="Path 42249" d="M165.525,97.821l-13.214-7.629a1.434,1.434,0,0,0-2.152,1.242v15.259a1.435,1.435,0,0,0,2.152,1.242l13.214-7.63a1.434,1.434,0,0,0,0-2.484" transform="translate(-68.3 -40.936)" fill="#231815"/>
    <rect id="Rectangle_887" data-name="Rectangle 887" width="8.814" height="28.278" transform="translate(204.125 41.547)" fill="#ffe600"/>
    <path id="Path_42250" data-name="Path 42250" d="M383.241,73.931c0,1.428-1.976,2.586-4.413,2.586s-4.414-1.158-4.414-2.586,1.976-2.586,4.414-2.586,4.413,1.158,4.413,2.586" transform="translate(-170.304 -32.452)" fill="#fff"/>
    <path id="Path_42251" data-name="Path 42251" d="M382.767,75.4c0,.475-.657.861-1.469.861s-1.469-.385-1.469-.861.658-.861,1.469-.861,1.469.385,1.469.861" transform="translate(-172.767 -33.906)" fill="#ffc900"/>
    <path id="Path_42252" data-name="Path 42252" d="M379.709,135.662l3.507-7.537h-8.764l3.507,7.537a.964.964,0,0,0,1.749,0" transform="translate(-170.321 -58.278)" fill="#fff"/>
    <path id="Path_42253" data-name="Path 42253" d="M383.241,125.024c0,1.588-1.976,2.875-4.413,2.875s-4.414-1.287-4.414-2.875,1.976-2.875,4.414-2.875,4.413,1.287,4.413,2.875" transform="translate(-170.304 -55.56)" fill="#ffe600"/>
    <path id="Path_42254" data-name="Path 42254" d="M379.459,138.883l.778,1.673a.964.964,0,0,0,1.749,0l.776-1.667a6.586,6.586,0,0,1-3.3-.005" transform="translate(-172.598 -63.171)" fill="#ffc900"/>
  </g>
</svg>
