<svg xmlns="http://www.w3.org/2000/svg" width="43" height="46" viewBox="0 0 43 46">
  <g id="グループ_6012" data-name="グループ 6012" transform="translate(21621 22881.002)">
    <path id="楕円形_503" data-name="楕円形 503" d="M18.4,6.2a12.391,12.391,0,1,0,12.268,12.39A12.344,12.344,0,0,0,18.4,6.2m0-6.2A18.586,18.586,0,1,1,0,18.585,18.495,18.495,0,0,1,18.4,0Z" transform="translate(-21621 -22881.002)" fill="#1a1a1a"/>
    <path id="パス_8387" data-name="パス 8387" d="M13.018,16.116a3.088,3.088,0,0,1-2.19-.907l-11.7-11.7A3.1,3.1,0,0,1,3.512-.869l11.7,11.7a3.1,3.1,0,0,1-2.19,5.288Z" transform="translate(-21594.115 -22851.117)" fill="#1a1a1a"/>
  </g>
</svg>
