<svg xmlns="http://www.w3.org/2000/svg" width="14" height="15.002" viewBox="0 0 14 15.002">
  <g id="グループ_5842" data-name="グループ 5842" transform="translate(21621 22881.002)">
    <path id="楕円形_503" data-name="楕円形 503" d="M6,2a4,4,0,1,0,4,4A4,4,0,0,0,6,2M6,0A6,6,0,1,1,0,6,6,6,0,0,1,6,0Z" transform="translate(-21621 -22881.002)" fill="#fff"/>
    <path id="パス_8387" data-name="パス 8387" d="M3,4a1,1,0,0,1-.707-.293L-1.483-.069a1,1,0,0,1,0-1.414,1,1,0,0,1,1.414,0L3.707,2.293A1,1,0,0,1,3,4Z" transform="translate(-21611 -22870)" fill="#fff"/>
  </g>
</svg>
